<?xml version="1.0" encoding="utf-8" standalone="no"?>
<!DOCTYPE svg PUBLIC "-//W3C//DTD SVG 1.1//EN"
  "http://www.w3.org/Graphics/SVG/1.1/DTD/svg11.dtd">
<svg xmlns:xlink="http://www.w3.org/1999/xlink" width="750.96pt" height="424.656pt" viewBox="0 0 750.96 424.656" xmlns="http://www.w3.org/2000/svg" version="1.1">
 <metadata>
  <rdf:RDF xmlns:dc="http://purl.org/dc/elements/1.1/" xmlns:cc="http://creativecommons.org/ns#" xmlns:rdf="http://www.w3.org/1999/02/22-rdf-syntax-ns#">
   <cc:Work>
    <dc:type rdf:resource="http://purl.org/dc/dcmitype/StillImage"/>
    <dc:date>2026-06-22T15:19:23.242585</dc:date>
    <dc:format>image/svg+xml</dc:format>
    <dc:creator>
     <cc:Agent>
      <dc:title>Matplotlib v3.8.4, https://matplotlib.org/</dc:title>
     </cc:Agent>
    </dc:creator>
   </cc:Work>
  </rdf:RDF>
 </metadata>
 <defs>
  <style type="text/css">*{stroke-linejoin: round; stroke-linecap: butt}</style>
 </defs>
 <g id="figure_1">
  <g id="patch_1">
   <path d="M 0 424.656 
L 750.96 424.656 
L 750.96 0 
L 0 0 
z
" style="fill: #ffffff"/>
  </g>
  <g id="axes_1">
   <g id="patch_2">
    <path d="M 163.195172 183.199824 
Q 166.665674 183.199824 169.018141 183.199824 
" clip-path="url(#pc05ab97a74)" style="fill: none; stroke: #1b66b1; stroke-linecap: round"/>
    <path d="M 165.018141 181.199824 
L 169.018141 183.199824 
L 165.018141 185.199824 
z
" clip-path="url(#pc05ab97a74)" style="fill: #1b66b1; stroke: #1b66b1; stroke-linecap: round"/>
   </g>
   <g id="line2d_1">
    <path d="M 276.0444 169.25112 
L 309.1896 169.25112 
L 309.1896 134.37936 
" clip-path="url(#pc05ab97a74)" style="fill: none; stroke: #16899a; stroke-linecap: square"/>
   </g>
   <g id="patch_3">
    <path d="M 314.186465 134.37936 
Q 325.760887 134.37936 336.217275 134.37936 
" clip-path="url(#pc05ab97a74)" style="fill: none; stroke: #16899a; stroke-linecap: round"/>
    <path d="M 332.217275 132.37936 
L 336.217275 134.37936 
L 332.217275 136.37936 
z
" clip-path="url(#pc05ab97a74)" style="fill: #16899a; stroke: #16899a; stroke-linecap: round"/>
   </g>
   <g id="line2d_2">
    <path d="M 276.0444 197.148528 
L 309.1896 197.148528 
L 309.1896 231.199776 
" clip-path="url(#pc05ab97a74)" style="fill: none; stroke: #c77700; stroke-linecap: square"/>
   </g>
   <g id="patch_4">
    <path d="M 314.186465 231.199776 
Q 325.760887 231.199776 336.217275 231.199776 
" clip-path="url(#pc05ab97a74)" style="fill: none; stroke: #c77700; stroke-linecap: round"/>
    <path d="M 332.217275 229.199776 
L 336.217275 231.199776 
L 332.217275 233.199776 
z
" clip-path="url(#pc05ab97a74)" style="fill: #c77700; stroke: #c77700; stroke-linecap: round"/>
   </g>
   <g id="line2d_3">
    <path d="M 460.1844 134.37936 
L 478.5984 134.37936 
L 478.5984 183.199824 
" clip-path="url(#pc05ab97a74)" style="fill: none; stroke: #16899a; stroke-linecap: square"/>
   </g>
   <g id="patch_5">
    <path d="M 483.602009 183.199824 
Q 487.807489 183.199824 490.894936 183.199824 
" clip-path="url(#pc05ab97a74)" style="fill: none; stroke: #16899a; stroke-linecap: round"/>
    <path d="M 486.894936 181.199824 
L 490.894936 183.199824 
L 486.894936 185.199824 
z
" clip-path="url(#pc05ab97a74)" style="fill: #16899a; stroke: #16899a; stroke-linecap: round"/>
   </g>
   <g id="line2d_4">
    <path d="M 460.1844 231.199776 
L 478.5984 231.199776 
L 478.5984 183.199824 
" clip-path="url(#pc05ab97a74)" style="fill: none; stroke: #c77700; stroke-linecap: square"/>
   </g>
   <g id="patch_6">
    <path d="M 483.602009 183.199824 
Q 487.807489 183.199824 490.894936 183.199824 
" clip-path="url(#pc05ab97a74)" style="fill: none; stroke: #c77700; stroke-linecap: round"/>
    <path d="M 486.894936 181.199824 
L 490.894936 183.199824 
L 486.894936 185.199824 
z
" clip-path="url(#pc05ab97a74)" style="fill: #c77700; stroke: #c77700; stroke-linecap: round"/>
   </g>
   <g id="patch_7">
    <path d="M 601.446214 183.199824 
Q 607.497093 183.199824 612.429938 183.199824 
" clip-path="url(#pc05ab97a74)" style="fill: none; stroke: #1b66b1; stroke-linecap: round"/>
    <path d="M 608.429938 181.199824 
L 612.429938 183.199824 
L 608.429938 185.199824 
z
" clip-path="url(#pc05ab97a74)" style="fill: #1b66b1; stroke: #1b66b1; stroke-linecap: round"/>
   </g>
   <g id="patch_8">
    <path d="M 546.36192 205.02332 
Q 546.36192 212.327679 546.36192 218.681709 
" clip-path="url(#pc05ab97a74)" style="fill: none; stroke: #475467; stroke-width: 0.85; stroke-linecap: round"/>
    <path d="M 547.96192 215.481709 
L 546.36192 218.681709 
L 544.76192 215.481709 
z
" clip-path="url(#pc05ab97a74)" style="fill: #475467; stroke: #475467; stroke-width: 0.85; stroke-linecap: round"/>
   </g>
   <g id="line2d_5">
    <path d="M 667.89432 200.02032 
L 667.89432 269.76384 
L 607.4964 269.76384 
" clip-path="url(#pc05ab97a74)" style="fill: none; stroke: #1b66b1; stroke-linecap: square"/>
   </g>
   <g id="patch_9">
    <path d="M 607.4964 274.764586 
Q 607.4964 282.687205 607.4964 289.491791 
" clip-path="url(#pc05ab97a74)" style="fill: none; stroke: #1b66b1; stroke-linecap: round"/>
    <path d="M 609.4964 285.491791 
L 607.4964 289.491791 
L 605.4964 285.491791 
z
" clip-path="url(#pc05ab97a74)" style="fill: #1b66b1; stroke: #1b66b1; stroke-linecap: round"/>
   </g>
   <g id="line2d_6">
    <path d="M 546.36192 256.635648 
L 546.36192 273.8664 
L 607.4964 273.8664 
" clip-path="url(#pc05ab97a74)" style="fill: none; stroke: #475467; stroke-width: 0.85; stroke-linecap: square"/>
   </g>
   <g id="patch_10">
    <path d="M 607.4964 278.864342 
Q 607.4964 284.737167 607.4964 289.659663 
" clip-path="url(#pc05ab97a74)" style="fill: none; stroke: #475467; stroke-width: 0.85; stroke-linecap: round"/>
    <path d="M 609.0964 286.459663 
L 607.4964 289.659663 
L 605.8964 286.459663 
z
" clip-path="url(#pc05ab97a74)" style="fill: #475467; stroke: #475467; stroke-width: 0.85; stroke-linecap: round"/>
   </g>
   <g id="line2d_7">
    <path d="M 32.9796 53.148672 
L 717.9804 53.148672 
" clip-path="url(#pc05ab97a74)" style="fill: none; stroke: #d6dee8; stroke-linecap: square"/>
   </g>
   <g id="patch_11">
    <path d="M 64.65168 204.12288 
L 152.30232 204.12288 
Q 165.5604 204.12288 165.5604 196.738272 
L 165.5604 169.661376 
Q 165.5604 162.276768 152.30232 162.276768 
L 64.65168 162.276768 
Q 51.3936 162.276768 51.3936 169.661376 
L 51.3936 196.738272 
Q 51.3936 204.12288 64.65168 204.12288 
z
" clip-path="url(#pc05ab97a74)" style="fill: #ffffff; stroke: #1b66b1; stroke-linejoin: miter"/>
   </g>
   <g id="patch_12">
    <path d="M 228.168 159.815232 
L 281.5686 183.199824 
L 228.168 206.584416 
L 174.7674 183.199824 
z
" clip-path="url(#pc05ab97a74)" style="fill: #ffffff; stroke: #16899a; stroke-width: 1.25; stroke-linejoin: miter"/>
   </g>
   <g id="patch_13">
    <path d="M 348.22728 154.89216 
L 454.29192 154.89216 
Q 467.55 154.89216 467.55 147.507552 
L 467.55 121.251168 
Q 467.55 113.86656 454.29192 113.86656 
L 348.22728 113.86656 
Q 334.9692 113.86656 334.9692 121.251168 
L 334.9692 147.507552 
Q 334.9692 154.89216 348.22728 154.89216 
z
" clip-path="url(#pc05ab97a74)" style="fill: #e7f6f8; stroke: #16899a; stroke-linejoin: miter"/>
   </g>
   <g id="patch_14">
    <path d="M 348.22728 252.533088 
L 454.29192 252.533088 
Q 467.55 252.533088 467.55 245.14848 
L 467.55 217.251072 
Q 467.55 209.866464 454.29192 209.866464 
L 348.22728 209.866464 
Q 334.9692 209.866464 334.9692 217.251072 
L 334.9692 245.14848 
Q 334.9692 252.533088 348.22728 252.533088 
z
" clip-path="url(#pc05ab97a74)" style="fill: #fff5e5; stroke: #c77700; stroke-linejoin: miter"/>
   </g>
   <g id="patch_15">
    <path d="M 502.90488 204.12288 
L 590.55552 204.12288 
Q 603.8136 204.12288 603.8136 196.738272 
L 603.8136 169.661376 
Q 603.8136 162.276768 590.55552 162.276768 
L 502.90488 162.276768 
Q 489.6468 162.276768 489.6468 169.661376 
L 489.6468 196.738272 
Q 489.6468 204.12288 502.90488 204.12288 
z
" clip-path="url(#pc05ab97a74)" style="fill: #eaf3fc; stroke: #1b66b1; stroke-linejoin: miter"/>
   </g>
   <g id="patch_16">
    <path d="M 624.43728 204.12288 
L 712.08792 204.12288 
Q 725.346 204.12288 725.346 196.738272 
L 725.346 169.661376 
Q 725.346 162.276768 712.08792 162.276768 
L 624.43728 162.276768 
Q 611.1792 162.276768 611.1792 169.661376 
L 611.1792 196.738272 
Q 611.1792 204.12288 624.43728 204.12288 
z
" clip-path="url(#pc05ab97a74)" style="fill: #fdecec; stroke: #c84848; stroke-linejoin: miter"/>
   </g>
   <g id="patch_17">
    <path d="M 502.90488 260.738208 
L 590.55552 260.738208 
Q 603.8136 260.738208 603.8136 253.3536 
L 603.8136 227.917728 
Q 603.8136 220.53312 590.55552 220.53312 
L 502.90488 220.53312 
Q 489.6468 220.53312 489.6468 227.917728 
L 489.6468 253.3536 
Q 489.6468 260.738208 502.90488 260.738208 
z
" clip-path="url(#pc05ab97a74)" style="fill: #f1f5f9; stroke: #475467; stroke-linejoin: miter"/>
   </g>
   <g id="patch_18">
    <path d="M 502.90488 337.45608 
L 712.08792 337.45608 
Q 725.346 337.45608 725.346 330.071472 
L 725.346 298.892016 
Q 725.346 291.507408 712.08792 291.507408 
L 502.90488 291.507408 
Q 489.6468 291.507408 489.6468 298.892016 
L 489.6468 330.071472 
Q 489.6468 337.45608 502.90488 337.45608 
z
" clip-path="url(#pc05ab97a74)" style="fill: #ffffff; stroke: #1b66b1; stroke-linejoin: miter"/>
   </g>
   <g id="text_1">
    <text style="fill: #1f2a37; font: 700 15px 'Microsoft YaHei', 'SimHei', 'Arial', 'DejaVu Sans', sans-serif; text-anchor: start" x="32.9796" y="35.600865" transform="rotate(-0 32.9796 35.600865)">RAG 问答与回退流程</text>
   </g>
   <g id="text_2">
    <text style="fill: #667085; font: 8.5px 'Microsoft YaHei', 'SimHei', 'Arial', 'DejaVu Sans', sans-serif; text-anchor: start" x="32.9796" y="48.000914" transform="rotate(-0 32.9796 48.000914)">优先使用 LightRAG 增强检索；服务未配置或调用失败时，自动退回本地分块检索。</text>
   </g>
   <g id="patch_19">
    <path d="M 58.7592 200.02032 
L 62.294688 200.02032 
L 62.294688 166.379328 
L 58.7592 166.379328 
z
" clip-path="url(#pc05ab97a74)" style="fill: #1b66b1"/>
   </g>
   <g id="text_3">
    <text style="fill: #1f2a37; font: 700 8.1px 'Microsoft YaHei', 'SimHei', 'Arial', 'DejaVu Sans', sans-serif; text-anchor: middle" x="108.477" y="178.70229" transform="rotate(-0 108.477 178.70229)">用户问题</text>
   </g>
   <g id="text_4">
    <text style="fill: #667085; font: 6.7px 'Microsoft YaHei', 'SimHei', 'Arial', 'DejaVu Sans', sans-serif" transform="translate(91.00832 188.453241)">question +</text>
    <text style="fill: #667085; font: 6.7px 'Microsoft YaHei', 'SimHei', 'Arial', 'DejaVu Sans', sans-serif" transform="translate(99.164523 196.438678)">mode</text>
   </g>
   <g id="text_5">
    <text style="fill: #1f2a37; font: 700 8px 'Microsoft YaHei', 'SimHei', 'Arial', 'DejaVu Sans', sans-serif" transform="translate(210.19425 180.612399)">LightRAG</text>
    <text style="fill: #1f2a37; font: 700 8px 'Microsoft YaHei', 'SimHei', 'Arial', 'DejaVu Sans', sans-serif" transform="translate(216.168 190.193499)">可用？</text>
   </g>
   <g id="patch_20">
    <path d="M 342.3348 150.7896 
L 345.870288 150.7896 
L 345.870288 117.96912 
L 342.3348 117.96912 
z
" clip-path="url(#pc05ab97a74)" style="fill: #16899a"/>
   </g>
   <g id="text_6">
    <text style="fill: #1f2a37; font: 700 7.9px 'Microsoft YaHei', 'SimHei', 'Arial', 'DejaVu Sans', sans-serif; text-anchor: middle" x="401.2596" y="129.99085" transform="rotate(-0 401.2596 129.99085)">增强检索</text>
   </g>
   <g id="text_7">
    <text style="fill: #667085; font: 6.8px 'Microsoft YaHei', 'SimHei', 'Arial', 'DejaVu Sans', sans-serif; text-anchor: middle" x="401.2596" y="143.495897" transform="rotate(-0 401.2596 143.495897)">调用 /query</text>
   </g>
   <g id="patch_21">
    <path d="M 342.3348 248.430528 
L 345.870288 248.430528 
L 345.870288 213.969024 
L 342.3348 213.969024 
z
" clip-path="url(#pc05ab97a74)" style="fill: #c77700"/>
   </g>
   <g id="text_8">
    <text style="fill: #1f2a37; font: 700 7.9px 'Microsoft YaHei', 'SimHei', 'Arial', 'DejaVu Sans', sans-serif; text-anchor: middle" x="401.2596" y="226.483061" transform="rotate(-0 401.2596 226.483061)">本地回退</text>
   </g>
   <g id="text_9">
    <text style="fill: #667085; font: 6.7px 'Microsoft YaHei', 'SimHei', 'Arial', 'DejaVu Sans', sans-serif" transform="translate(384.383452 236.633706)">分块检索 +</text>
    <text style="fill: #667085; font: 6.7px 'Microsoft YaHei', 'SimHei', 'Arial', 'DejaVu Sans', sans-serif" transform="translate(387.8596 244.619143)">可选综合</text>
   </g>
   <g id="patch_22">
    <path d="M 497.0124 200.02032 
L 500.547888 200.02032 
L 500.547888 166.379328 
L 497.0124 166.379328 
z
" clip-path="url(#pc05ab97a74)" style="fill: #1b66b1"/>
   </g>
   <g id="text_10">
    <text style="fill: #1f2a37; font: 700 7.8px 'Microsoft YaHei', 'SimHei', 'Arial', 'DejaVu Sans', sans-serif; text-anchor: middle" x="546.7302" y="178.619672" transform="rotate(-0 546.7302 178.619672)">结果组装</text>
   </g>
   <g id="text_11">
    <text style="fill: #667085; font: 6.7px 'Microsoft YaHei', 'SimHei', 'Arial', 'DejaVu Sans', sans-serif" transform="translate(531.978684 188.453241)">answer +</text>
    <text style="fill: #667085; font: 6.7px 'Microsoft YaHei', 'SimHei', 'Arial', 'DejaVu Sans', sans-serif" transform="translate(534.620473 196.438678)">sources</text>
   </g>
   <g id="patch_23">
    <path d="M 618.5448 200.02032 
L 622.080288 200.02032 
L 622.080288 166.379328 
L 618.5448 166.379328 
z
" clip-path="url(#pc05ab97a74)" style="fill: #c84848"/>
   </g>
   <g id="text_12">
    <text style="fill: #1f2a37; font: 700 7.7px 'Microsoft YaHei', 'SimHei', 'Arial', 'DejaVu Sans', sans-serif; text-anchor: middle" x="668.2626" y="178.592133" transform="rotate(-0 668.2626 178.592133)">安全检查</text>
   </g>
   <g id="text_13">
    <text style="fill: #667085; font: 6.6px 'Microsoft YaHei', 'SimHei', 'Arial', 'DejaVu Sans', sans-serif; text-anchor: middle" x="668.2626" y="192.41842" transform="rotate(-0 668.2626 192.41842)">敏感内容与数字声明</text>
   </g>
   <g id="patch_24">
    <path d="M 497.0124 256.635648 
L 500.547888 256.635648 
L 500.547888 224.63568 
L 497.0124 224.63568 
z
" clip-path="url(#pc05ab97a74)" style="fill: #475467"/>
   </g>
   <g id="text_14">
    <text style="fill: #1f2a37; font: 700 7.6px 'Microsoft YaHei', 'SimHei', 'Arial', 'DejaVu Sans', sans-serif; text-anchor: middle" x="546.7302" y="236.328639" transform="rotate(-0 546.7302 236.328639)">行为记录</text>
   </g>
   <g id="text_15">
    <text style="fill: #667085; font: 6.6px 'Microsoft YaHei', 'SimHei', 'Arial', 'DejaVu Sans', sans-serif" transform="translate(531.482653 245.537938)">rag_ask +</text>
    <text style="fill: #667085; font: 6.6px 'Microsoft YaHei', 'SimHei', 'Arial', 'DejaVu Sans', sans-serif" transform="translate(533.5302 253.448533)">画像信号</text>
   </g>
   <g id="patch_25">
    <path d="M 497.0124 333.35352 
L 500.547888 333.35352 
L 500.547888 295.609968 
L 497.0124 295.609968 
z
" clip-path="url(#pc05ab97a74)" style="fill: #1b66b1"/>
   </g>
   <g id="text_16">
    <text style="fill: #1f2a37; font: 700 8.3px 'Microsoft YaHei', 'SimHei', 'Arial', 'DejaVu Sans', sans-serif; text-anchor: middle" x="607.4964" y="309.218776" transform="rotate(-0 607.4964 309.218776)">返回结果</text>
   </g>
   <g id="text_17">
    <text style="fill: #667085; font: 6.6px 'Microsoft YaHei', 'SimHei', 'Arial', 'DejaVu Sans', sans-serif; text-anchor: middle" x="607.4964" y="324.718919" transform="rotate(-0 607.4964 324.718919)">answer、sources、fallback_reason、安全提示</text>
   </g>
   <g id="text_18">
    <text style="fill: #16899a; font: 700 7.4px 'Microsoft YaHei', 'SimHei', 'Arial', 'DejaVu Sans', sans-serif; text-anchor: middle" x="302.56056" y="160.212099" transform="rotate(-0 302.56056 160.212099)">可用</text>
   </g>
   <g id="text_19">
    <text style="fill: #c77700; font: 700 7.4px 'Microsoft YaHei', 'SimHei', 'Arial', 'DejaVu Sans', sans-serif; text-anchor: middle" x="302.56056" y="209.853075" transform="rotate(-0 302.56056 209.853075)">不可用 / 失败</text>
   </g>
  </g>
 </g>
 <defs>
  <clipPath id="pc05ab97a74">
   <rect x="7.2" y="7.2" width="736.56" height="410.256"/>
  </clipPath>
 </defs>
</svg>
